<svg width="119" height="60" viewBox="0 0 119 60" fill="none" xmlns="http://www.w3.org/2000/svg">
<mask id="mask0_529_11" style="mask-type:luminance" maskUnits="userSpaceOnUse" x="0" y="0" width="119" height="60">
<path d="M118.591 0H0.304321V60H118.591V0Z" fill="white"/>
</mask>
<g mask="url(#mask0_529_11)">
<path d="M28.1745 41.5847L28.0154 41.4256C28.3902 41.0509 28.6875 40.606 28.8903 40.1164C29.0931 39.6268 29.1975 39.102 29.1975 38.572C29.1975 30.5491 32.3846 22.8549 38.0576 17.1819C43.7305 11.5089 51.425 8.32179 59.4477 8.32179C67.4705 8.32179 75.165 11.5089 80.8378 17.1819C86.5108 22.8547 89.6977 30.5485 89.698 38.5711M28.1745 41.5847L89.698 38.572C89.698 38.5717 89.698 38.5714 89.698 38.5711M28.1745 41.5847L28.0154 41.4256C27.6406 41.8004 27.1958 42.0976 26.7061 42.3004C26.2165 42.5032 25.6917 42.6074 25.1617 42.6074C24.0914 42.6074 23.065 42.1823 22.3082 41.4255C21.5514 40.6687 21.1262 39.6423 21.1262 38.572C21.1262 33.5395 22.1174 28.5564 24.0432 23.907C25.9691 19.2576 28.7918 15.0331 32.3503 11.4746C35.9088 7.91611 40.1334 5.09336 44.7827 3.16754C49.4323 1.2417 54.4151 0.250488 59.4477 0.250488C64.4803 0.250488 69.4632 1.2417 74.1128 3.16754C78.762 5.09336 82.9865 7.91611 86.5453 11.4746C90.1037 15.0331 92.9263 19.2576 94.8523 23.907C96.7778 28.5561 97.7691 33.5389 97.7693 38.5711M28.1745 41.5847L97.7693 38.5711M89.698 38.5711C89.7088 39.6338 90.1387 40.6493 90.8941 41.3972L90.8942 41.3972C91.6496 42.1453 92.6701 42.5651 93.7338 42.5651C94.7971 42.5651 95.8176 42.1453 96.573 41.3972L96.5731 41.3972C97.3286 40.6493 97.7584 39.6338 97.7693 38.5711M89.698 38.5711L97.7693 38.5711" fill="#2C3C53" stroke="white" stroke-width="0.5"/>
<path d="M76.0749 51.6787L76.3771 51.2782C79.1378 47.6181 80.6287 43.1571 80.6241 38.5723V38.572C80.6241 32.9551 78.3926 27.5682 74.421 23.5964C70.449 19.6246 65.0621 17.3933 59.4452 17.3933C53.8286 17.3933 48.4417 19.6246 44.4697 23.5964C40.498 27.5682 38.2667 32.9551 38.2667 38.572C38.2667 39.6424 38.6919 40.6689 39.4488 41.4258C40.2056 42.1826 41.2322 42.6079 42.3025 42.6079C43.3731 42.6079 44.3997 42.1826 45.1563 41.4258L45.1563 41.4258C45.9134 40.6689 46.3384 39.6424 46.3384 38.572C46.3384 35.9796 47.107 33.4455 48.5472 31.29C49.9875 29.1344 52.0345 27.4544 54.4295 26.4622C56.8246 25.4701 59.46 25.2105 62.0025 25.7162C64.545 26.2219 66.8807 27.4702 68.7135 29.3033C70.5468 31.1363 71.7951 33.4718 72.3011 36.0143L72.0617 36.062L72.3011 36.0144C72.8066 38.5569 72.5471 41.1923 71.5552 43.5872C70.5629 45.9822 68.8832 48.0297 66.7276 49.4699C64.572 50.9102 62.0378 51.6787 59.4456 51.6787H4.59017H4.58771C4.05428 51.6735 3.52517 51.7738 3.03096 51.9744L3.03079 51.9745C2.53661 52.1747 2.08698 52.4712 1.7079 52.8463L76.0749 51.6787ZM76.0749 51.6787H76.5767M76.0749 51.6787H76.5767M76.5767 51.6787H114.304M76.5767 51.6787H114.304M114.304 51.6787C115.367 51.6895 116.382 52.1194 117.13 52.8749L117.13 52.875C117.879 53.6304 118.298 54.6509 118.298 55.7146C118.298 56.7779 117.879 57.7984 117.13 58.5538L117.13 58.5539C116.382 59.3094 115.367 59.7393 114.304 59.7501L4.59017 59.75L4.58771 59.7501C4.05428 59.7553 3.52517 59.655 3.03096 59.4544L3.03079 59.4543C2.53661 59.2541 2.08697 58.9576 1.7079 58.5825L114.304 51.6787ZM2.93693 59.686C2.412 59.4734 1.93448 59.1585 1.53196 58.7601C1.12943 58.3614 0.809891 57.8873 0.591823 57.3644C0.373752 56.8416 0.261475 56.2807 0.261475 55.7146C0.261475 55.1481 0.373752 54.5872 0.591823 54.0644C0.809891 53.5415 1.12943 53.0675 1.53196 52.6687L1.7078 52.8464C1.32872 53.222 1.02787 53.6683 0.822558 54.1606C0.617205 54.6529 0.511475 55.1812 0.511475 55.7146C0.511475 56.2476 0.617201 56.7758 0.822558 57.2682C1.02787 57.7605 1.32872 58.2068 1.7078 58.5824L2.93693 59.686ZM2.93693 59.686C3.46185 59.8991 4.02377 60.0056 4.59017 60.0001L2.93693 59.686Z" fill="url(#paint0_linear_529_11)" stroke="white" stroke-width="0.5"/>
</g>
<defs>
<linearGradient id="paint0_linear_529_11" x1="0.261475" y1="38.5718" x2="118.548" y2="38.5718" gradientUnits="userSpaceOnUse">
<stop stop-color="#A40001"/>
<stop offset="0.500818" stop-color="#EF2731"/>
<stop offset="1" stop-color="#DA121C"/>
</linearGradient>
</defs>
</svg>
